<svg width="197" height="216" viewBox="0 0 197 216" fill="none" xmlns="http://www.w3.org/2000/svg">
<path d="M41.0417 27V189H90.2917V157.5H106.708V189H155.958V27H41.0417ZM57.4583 45H73.875V63H57.4583V45ZM90.2917 45H106.708V63H90.2917V45ZM123.125 45H139.542V63H123.125V45ZM57.4583 81H73.875V99H57.4583V81ZM90.2917 81H106.708V99H90.2917V81ZM123.125 81H139.542V99H123.125V81ZM57.4583 117H73.875V135H57.4583V117ZM90.2917 117H106.708V135H90.2917V117ZM123.125 117H139.542V135H123.125V117ZM57.4583 153H73.875V171H57.4583V153ZM123.125 153H139.542V171H123.125V153Z" fill="#37BD3B"/>
</svg>
